<?xml version="1.0" encoding="UTF-8" standalone="no" ?>
<!DOCTYPE svg PUBLIC "-//W3C//DTD SVG 1.1//EN" "http://www.w3.org/Graphics/SVG/1.1/DTD/svg11.dtd">
<svg xmlns="http://www.w3.org/2000/svg" xmlns:xlink="http://www.w3.org/1999/xlink" version="1.1" width="1080" height="1080" viewBox="0 0 1080 1080" xml:space="preserve">
<desc>Created with Fabric.js 5.2.4</desc>
<defs>
</defs>
<g transform="matrix(1 0 0 1 540 540)" id="1e28be3a-1bbf-4750-a842-6187050e22e6"  >
<rect style="stroke: none; stroke-width: 1; stroke-dasharray: none; stroke-linecap: butt; stroke-dashoffset: 0; stroke-linejoin: miter; stroke-miterlimit: 4; fill: rgb(255,255,255); fill-rule: nonzero; opacity: 1; visibility: hidden;" vector-effect="non-scaling-stroke"  x="-540" y="-540" rx="0" ry="0" width="1080" height="1080" />
</g>
<g transform="matrix(1 0 0 1 540 540)" id="ae9aa611-43ab-45c5-9b22-b614a3d26869"  >
</g>
<g transform="matrix(33.75 0 0 33.75 540 540)"  >
<path style="stroke: none; stroke-width: 1; stroke-dasharray: none; stroke-linecap: butt; stroke-dashoffset: 0; stroke-linejoin: miter; stroke-miterlimit: 4; fill: rgb(255,255,255); fill-rule: nonzero; opacity: 1;"  transform=" translate(-10.41, -16)" d="M 0 8.219 L 0 23.782 C 0 25.251 1.156 26.407 2.625 26.407 L 18.188000000000002 26.407 C 18.907000000000004 26.407 19.594 26.063 20.032000000000004 25.626 C 20.501000000000005 25.157 20.813000000000002 24.563000000000002 20.813000000000002 23.782 L 20.813000000000002 8.219 C 20.813000000000002 6.749999999999999 19.657000000000004 5.593999999999999 18.188000000000002 5.593999999999999 L 2.6250000000000018 5.593999999999999 C 1.8440000000000016 5.593999999999999 1.2500000000000018 5.906999999999999 0.7810000000000017 6.374999999999999 C 0.3430000000000017 6.812999999999999 1.6653345369377348e-15 7.499999999999999 1.6653345369377348e-15 8.219 z M 2.813 10.281 C 2.813 9.281 3.6260000000000003 8.406 4.626 8.406 C 5.657 8.406 6.501 9.281 6.501 10.281 C 6.501 11.312000000000001 5.657 12.125 4.626 12.125 C 3.6260000000000003 12.125 2.8130000000000006 11.312 2.8130000000000006 10.281 z M 7.844 23.125 L 7.844 13.594 C 7.844 13.375 8.063 13.187999999999999 8.219000000000001 13.187999999999999 L 10.875000000000002 13.187999999999999 C 11.250000000000002 13.187999999999999 11.250000000000002 13.626 11.250000000000002 13.906999999999998 C 12.000000000000002 13.156999999999998 12.969000000000001 12.968999999999998 13.969000000000001 12.968999999999998 C 16.407 12.968999999999998 17.969 14.124999999999998 17.969 16.688 L 17.969 23.125999999999998 C 17.969 23.345 17.781000000000002 23.531999999999996 17.594 23.531999999999996 L 14.844000000000001 23.531999999999996 C 14.625000000000002 23.531999999999996 14.469000000000001 23.312999999999995 14.469000000000001 23.125999999999998 L 14.469000000000001 17.313 C 14.469000000000001 16.343999999999998 14.188 15.812999999999999 13.094000000000001 15.812999999999999 C 11.719000000000001 15.812999999999999 11.375000000000002 16.718999999999998 11.375000000000002 17.938 L 11.375000000000002 23.125999999999998 C 11.375000000000002 23.345 11.156000000000002 23.531999999999996 10.937000000000001 23.531999999999996 L 8.218000000000002 23.531999999999996 C 8.062000000000001 23.531999999999996 7.843000000000002 23.312999999999995 7.843000000000002 23.125999999999998 z M 2.875 23.125 L 2.875 13.594 C 2.875 13.375 3.094 13.187999999999999 3.25 13.187999999999999 L 5.968999999999999 13.187999999999999 C 6.218999999999999 13.187999999999999 6.374999999999999 13.344 6.374999999999999 13.594 L 6.374999999999999 23.125 C 6.374999999999999 23.344 6.186999999999999 23.531 5.968999999999999 23.531 L 3.2499999999999996 23.531 C 3.0619999999999994 23.531 2.8749999999999996 23.311999999999998 2.8749999999999996 23.125 z" stroke-linecap="round" />
</g>
</svg>